{"title":"The.Lord.Of.The.Rings.The.Two.Towers.(2002).BRRip.480p.x264.Eng.","uid":7454142,"size":3157802156,"categoryP":"video","categoryS":"movies","magnet":"?xt=urn:btih:1d75f04054cf1d6085b8ac320f3246682806f853&amp;dn=The.Lord.Of.The.Rings.The.Two.Towers.%282002%29.BRRip.480p.x264.Eng.&amp;tr=udp%3A%2F%2Ftracker.openbittorrent.com%3A80&amp;tr=udp%3A%2F%2Fopen.demonii.com%3A1337&amp;tr=udp%3A%2F%2Ftracker.coppersurfer.tk%3A6969&amp;tr=udp%3A%2F%2Fexodus.desync.com%3A6969","seeders":0,"leechers":0,"uploader":"Lawry1494","files":-1,"time":1342617911,"description":"General\nComplete name                            : The.Lord.Of.The.Rings.The.Two.Towers.(2002).BRRip.480p.x264.Eng.AAC.5.1.AMX.mp4\nFormat                                   : MPEG-4\nFormat profile                           : Base Media\nCodec ID                                 : isom\nFile size                                : 2.94 GiB\nDuration                                 : 3h 55mn\nOverall bit rate mode                    : Variable\nOverall bit rate                         : 1 788 Kbps\n\nVideo\nID                                       : 1\nFormat                                   : AVC\nFormat/Info                              : Advanced Video Codec\nFormat profile                           : &lt;a class=&quot;__cf_email__&quot; href=&quot;/cdn-cgi/l/email-protection&quot; data-cfemail=&quot;662e0f010e262a554856&quot;&gt;[email&amp;#160;protected]&lt;/a&gt;&lt;script cf-hash='f9e31' type=&quot;text/javascript&quot;&gt;\n/* &lt;![CDATA[ */!function(){try{var t=&quot;currentScript&quot;in document?document.currentScript:function(){for(var t=document.getElementsByTagName(&quot;script&quot;),e=t.length;e--;)if(t[e].getAttribute(&quot;cf-hash&quot;))return t[e]}();if(t&amp;&amp;t.previousSibling){var e,r,n,i,c=t.previousSibling,a=c.getAttribute(&quot;data-cfemail&quot;);if(a){for(e=&quot;&quot;,r=parseInt(a.substr(0,2),16),n=2;a.length-n;n+=2)i=parseInt(a.substr(n,2),16)^r,e+=String.fromCharCode(i);e=document.createTextNode(e),c.parentNode.replaceChild(e,c)}}}catch(u){}}();/* ]]&gt; */&lt;/script&gt;\nFormat settings, CABAC                   : Yes\nFormat settings, ReFrames                : 8 frames\nCodec ID                                 : avc1\nCodec ID/Info                            : Advanced Video Coding\nDuration                                 : 3h 55mn\nBit rate                                 : 1 447 Kbps\nMaximum bit rate                         : 6 391 Kbps\nWidth                                    : 720 pixels\nHeight                                   : 304 pixels\nDisplay aspect ratio                     : 2.35:1\nFrame rate mode                          : Constant\nFrame rate                               : 23.976 fps\nColor space                              : YUV\nChroma subsampling                       : 4:2:0\nBit depth                                : 8 bits\nScan type                                : Progressive\nBits/(Pixel*Frame)                       : 0.276\nStream size                              : 2.38 GiB (81%)\nWriting library                          : x264 core 125 r2200 999b753\n\nAudio\nID                                       : 2\nFormat                                   : AAC\nFormat/Info                              : Advanced Audio Codec\nFormat profile                           : LC\nCodec ID                                 : 40\nDuration                                 : 3h 55mn\nBit rate mode                            : Variable\nBit rate                                 : 337 Kbps\nMaximum bit rate                         : 394 Kbps\nChannel(s)                               : 6 channels\nChannel positions                        : Front: L C R, Side: L R, LFE\nSampling rate                            : 48.0 KHz\nCompression mode                         : Lossy\nStream size                              : 567 MiB (19%)\nLanguage                                 : English\n","torrent":{"xt":"urn:btih:1d75f04054cf1d6085b8ac320f3246682806f853","amp;dn":"The.Lord.Of.The.Rings.The.Two.Towers.%282002%29.BRRip.480p.x264.Eng.","amp;tr":["udp%3A%2F%2Ftracker.openbittorrent.com%3A80","udp%3A%2F%2Fopen.demonii.com%3A1337","udp%3A%2F%2Ftracker.coppersurfer.tk%3A6969","udp%3A%2F%2Fexodus.desync.com%3A6969"],"infoHash":"1d75f04054cf1d6085b8ac320f3246682806f853","infoHashBuffer":{"type":"Buffer","data":[29,117,240,64,84,207,29,96,133,184,172,50,15,50,70,104,40,6,248,83]},"announce":[],"urlList":[]}}